<svg xmlns="http://www.w3.org/2000/svg" viewBox="0 0 286.55 327.71"><defs><style>.cls-1{fill:#dd654b;}</style></defs><g id="Layer_2" data-name="Layer 2"><g id="Layer_1-2" data-name="Layer 1"><path class="cls-1" d="M226.46,322.36c.35.21,1.12,0,.94-.58l-1.35-.37Z"/><path class="cls-1" d="M228.67,318a2.78,2.78,0,0,0-3-.94c1.31.66.79.86,2.34,1.56a.8.8,0,0,1-.85,1c.35.2-.24,1,.61,1.27a1.87,1.87,0,0,0,.05-2.93C228.06,317.77,228.42,318,228.67,318Z"/><path class="cls-1" d="M226,256.78l-.11.41A.81.81,0,0,0,226,256.78Z"/><path class="cls-1" d="M221.06,219c.09.28.25.37.37.37C221.29,219.12,221.16,218.92,221.06,219Z"/><path class="cls-1" d="M221.2,212.31c0,.14,0,.26,0,.39C221.28,212.53,221.32,212.37,221.2,212.31Z"/><path class="cls-1" d="M226,256.78l.29-1.06C225.88,255.7,226.06,256.28,226,256.78Z"/><path class="cls-1" d="M225,309.78a1.3,1.3,0,0,0,.38.53,3.39,3.39,0,0,1-.17-.51Z"/><path class="cls-1" d="M228.77,273.36l0,.31a2.88,2.88,0,0,0,.55.21Z"/><path class="cls-1" d="M230,286.18c0-.3-1.1-.31-1.6-.39a1.11,1.11,0,0,1,.82.58A2.63,2.63,0,0,0,230,286.18Z"/><path class="cls-1" d="M229.38,306.64l.17.35C229.5,306.9,229.45,306.75,229.38,306.64Z"/><path class="cls-1" d="M228.13,264.16a1.31,1.31,0,0,0,.39-.16A1,1,0,0,0,228.13,264.16Z"/><path class="cls-1" d="M14.68,9.32c0-.08,0-.13,0-.2C14.61,9.23,14.58,9.3,14.68,9.32Z"/><path class="cls-1" d="M.15,3.84l.2-.07a4.42,4.42,0,0,0,0-.63Z"/><path class="cls-1" d="M219.89,200.27s0,0,0,.06C220.08,200.61,220,200.44,219.89,200.27Z"/><path class="cls-1" d="M169.76,102.32c.05,1.59-2.31-.7-1.93,1.44C168.05,103.34,170.27,103.93,169.76,102.32Z"/><path class="cls-1" d="M225.13,309.44a4.55,4.55,0,0,1,0-.53A1.16,1.16,0,0,0,225.13,309.44Z"/><path class="cls-1" d="M167.83,103.76h0l.05.21Z"/><path class="cls-1" d="M211.3,173.84a1.49,1.49,0,0,0-.37.43C211,174.23,211.15,174.12,211.3,173.84Z"/><path class="cls-1" d="M215.89,194v-.53A1.33,1.33,0,0,0,215.89,194Z"/><path class="cls-1" d="M206,164.38c0-.29.09-.44-.19-.73a.55.55,0,0,0-.08.15C205.9,163.87,206,164,206,164.38Z"/><path class="cls-1" d="M201.53,154.16c-.06.09-.08.19-.13.28l.2.3Z"/><path class="cls-1" d="M46,15.58a3.63,3.63,0,0,1-.12-1.12C45.72,15.27,44.16,15,46,15.58Z"/><path class="cls-1" d="M225.64,309.74c-.29-.05-.44-.14-.51-.3a2.37,2.37,0,0,0,.09.36A.58.58,0,0,0,225.64,309.74Z"/><path class="cls-1" d="M197.6,167.3c-.15-.55-.29-1.11-.49-1.64A14.5,14.5,0,0,0,197.6,167.3Z"/><path class="cls-1" d="M110.62,56.74l-.38-.16A.37.37,0,0,0,110.62,56.74Z"/><path class="cls-1" d="M194.91,161.1a2.42,2.42,0,0,0,.32-1.19.76.76,0,0,0-.34-.06Z"/><path class="cls-1" d="M45.84,14.45h0Z"/><path class="cls-1" d="M34.49,13.72c1.52.43,1.09-1.2,1.64-1.94,2,.13.57,1.3,1,2.2,1.24,0,2.52-1.12,3.36-.77,0,.25.13.39-.16.61,1.56-.71,3.59,1.07,5.47.22a.91.91,0,0,1,.06.41,5.35,5.35,0,0,1,.46-2c.7.23,1.61-.41,1.54.59-.42-.18-.59.17-.89.38l.87-.13c.17,1.54-1.15.1-1.5,1.06.78,0,1.67-.06,2.5-.07a3.17,3.17,0,0,1,2,.49c-.28,1.35-2.65-.56-1.67,1.13-.48-.39-1-.76-1.46-1.11.51,2.46-1-.5-.6,2.06,2,1.17,2.64.29,4.62,1.5.77-.51.27-1.1,1-1.6,3.57.08,1,4.15,3.92,3.48.94-.56,1.89-2,3.07-.45l-1.19,1.14c1.94,1.09,2.13-1.46,3.77.53-.64.35-1.8-.34-1.58,0,.82,1.77,1.35-.3,2.4.24L62.76,23c1.11.43,2.35.75,3.62,1.11a22.45,22.45,0,0,1,3.81,1.28c-.33.28-.93.42-.61,1.09a14.52,14.52,0,0,1,4.53,2.6,35.3,35.3,0,0,1,3.78,3.62l1.67-.31a.44.44,0,0,1-.23.75c.8,1.07.47-.58,1.23-.63a.58.58,0,0,1-.17,1.13c2.4.39,6.47,1.83,7.64,4.24h-.58c1.19,1.47,3.09-.71,3.82,1.18l-.39,0c2.89,2.78,7,4.67,8.29,8,1.51-1,2.58,3.07,4.27,1.43,1,2.37.25,2.26,2.18,4.94.58.64,1.93-.28,2.9.22l-.79,1,1.94,0-.39,1.62,1,.42a1,1,0,0,1,0-1.2c1.55.61,2.3,3.15,1.9,3.65l3.45,1.68c-.4.32-1,0-1.55-.06,2.31.38-.59,1.2,1.51,1.56,0-.37.59-.46.79-.62.17,1.16,1.69,2.54,3,3.34l-.78.43c1.87,2,4.53,3.61,6.77,5.73a1,1,0,0,1,1.41-1.43l-.62,1.2c1-.19-.36-1,1.19-.91.74.9-.44,1.61-1.22,1.47l1.33.63c-.2.34-.58.26-1,.57,1-.2.86,2.6,2.43,2.14l-.21.34c2.22,2.13,3.56,2.75,5.4,4.45.82-.78,1.35.08,2.52-.06,1.08,1.54,1.92,3.61,3.57,5.08,1.51.7,1-.36,2-.34-.63.81,1,2.31-.33,2a30,30,0,0,0,5.49,4.06c0-.55-.11-1,.28-1.06.55.32.67,1.29.26,1.57l-.19,0c3.76,1.64,3.84,8.33,7.42,9.07l-.2,0c1,.5,2,1,2.91,1.55.82,1.18-1.14-.12-.91,1.09,3.53,1.34,3.31,4.11,6,5.44-.45,1.79.77,3.2,2.18,4.59s2.93,2.83,3.07,4.53l.46-.56c1,.14.24.94.44,1.48.39-.4,0-1,.6-.91,4.55,4.43,6.9,11,9.77,16.64,1.1,2,3.83-.86,3.9,2.58l-1.55,0A20.76,20.76,0,0,1,186,142c.58,1.06,1.21,2.07,1.8,3.1a14.63,14.63,0,0,0,2.09,2.87c-.4-.1-.75.08-1-.33-.4,1.32,1.6,3.23,2.31,2.9.25.68-.55.46-.71,1-.06,1.11,2.22,1.64,1.6,2.52-.1.15-.4-.11-.55-.23.35.18.66.85,1,1.35s.58.85,1,.33c.22,1.81,1.79,2.84,1.76,4.38,1.5.32.66,3,2.38,2.52-1.72.62-.07,3.34,1.1,4.06-.64-.14-.19,1.11-1,1,.47,1.16,1.19,2.11,2,1.56-1.2,2.94,3.3,3.74,1.16,5.93.56.79,1.11,1.56,1.61,2.34s.93,1.57,1.36,2.35c.87,1.56,1.66,3.11,2.39,4.65-1.75.44-1.33-3.49-3.08-2.76,1.68,2.79,3.78,4.08,4.3,7.24,0,.87-.87-.22-1.25-.39,1.59,2.86,1.52,6,3.24,8.46-.17,0-.43-.21-.64-.45.21.52.1,1.32.87,1.05l-.36-.47c.9-1.18,3,1.51,3.64,1.45-1.26-.16-1.21.56-1.26,1.23s-.23,1.3-1.85.93a1.07,1.07,0,0,0,1.23.46c0,.58-.3.82-1,.44.9,1.84,1.58.94,2,2.72-.39.09-.62-.23-1.12-.3,1,.71,1.93,1.43,2,3-.26,0-.52.21-.62-.24.71,2.55,3.12,3.93,2.93,7-1.85-.48-.36,1.1-1.79,1.55l.75,1.45.58-.77c.25,1.35,1.56,2.33,1.31,3.59l-.8-.88.78,2.47.27-1.54c1,1.22,1.83-.51,1.78,1.37-.22-.34.26,1.36-.47,2.23h0a2.4,2.4,0,0,1,1,2.27c-.43.34-1.67.08-2,.3,1.34.45.88,3.12,2.33,3.74a1.57,1.57,0,0,0-1.27,0l1.09.38c-.21.69-.35.8-1,.81.14,1.92,1.77-.92,1.34,1.46-.11-.16-.25,0-.46-.39,0,2.32,1.39,4.26,1.17,6.43-1.4.83-.63-1.77-1.78-.88.69,3,2.66,6,2.73,8.92l.08-.56c2.16.12-.71,2.3.44,3.65-.2-.35-1.22-.33-1-.26-.1,2,1,4,2,7l-.58-.31c-.35,1.23.08,3.13,0,4.43.58.32.56,1.06,1.31.53-2.7,4.25,2.39,7.35.16,11.09-.05-.42-.57-1-.54-.62.27,1,.53,1.95.77,2.93.9-.32.53-.44,1.19-1.13a2.54,2.54,0,0,1,1.13,1.87c-.72-1.29-1.48.15-1.94.77.27-.12.6,0,.88,0-1.51,1.7,1.88.11,1,2.33l-.5-.07c.32.77,1,1.45.95,2.33-1,.44-.57-.81-1.45-.79.16,1.19,2.22,2.21,1.24,3.39-.34-.49-.4-1.23-.74-1.71a2.62,2.62,0,0,0-1,2.29l0-.09-.4,2.09.3-.55c2.9,1.3.73,3,2.69,4.94-1.86-1.85-1-.25-2.24-.32-.3.54-.62,1.36-1,1.16,1,.89-.66,1.66.86,2.91-.38.09,0,1-1,.88.4,1.23.66-.34,1.15-.27,1.47,1.84-1.29,4.63.69,7.29.9,2.35,2.24,2.71,3,4.89-.57.79-1.45-.53-1.45-.53a3.65,3.65,0,0,0,.18,3.26c-.36-.21-.63.05-1,.42.16.91,1.46.53.95,1.77a5.46,5.46,0,0,1-1.61-.82c.41,1.05,1.2,2.08,1.61,3.17-.66.34-1.06-.61-1.53-1,.38,1.24.8,3.21,1.9,3.54l.33-.82c.08.45-.91.28-1.12,0-.9-1,.28-1.58.67-1.66l.3.78c2.23-.95-.55-3.17-.51-4.78l1.7.57-1.48-1.56c.42-.37,1.33-.67,1.63.11.75-1.2-.66-1,.2-2,.13-.12.22-.08.29,0l-.57-1.09c.37.2,1.17-.26,1,.44.83-2.07-1.45-3.17-.23-4l.11.16c-.73-2.76-1.24-.2-2.8-2.2l2.92-1.6-1.23-.2c0-.29.08-.86.57-.79-.9-1-.51.22-1.34-.35,1-1.46-.79-3.79,1.13-4.24-1-.43-.62,1.38-1.37-.06,2.06-.56-.48-1.68.39-3,1.11.31.62,1.56,1.49.22-1.87-.63.23-2.5-.19-3.54-1.45.05-.77-2.28-1.41-4,.5.08.52-3.44.9-5.15l.25,0c-1.49-.2-1.35-1.95-1.76-3.17a1.61,1.61,0,0,1,1.69.81l-.1-1.18a1.87,1.87,0,0,1-1-1.33l1.12.2c-.21-1.57-1.6-3-1.06-5.13-1,0-2.69,1.87-3.58-.19.55-.13,1.48-.3,1.76.23-.09-.17-.52-.6-.32-1l1,.76c.32-1-.82-.41-.81-1.15.79-.06.51-.6,1.14-.55.1.18-.26.67.08.92a3.34,3.34,0,0,1,1-2.28c-.44.12-1.06.11-1.22-.49-.21-1.56.89-.63,1.21-1.59-.59-.32-.12-1.38-1.3-1.29,0-.46.5-.6.8-.81-.6-.76-.59-3.77-1.73-2.72l0,.22s0-.08-.07-.13h0c-1.48-2.52,0-5.59-.8-8.16l.39-.05c-.61-1.51-.72-3.46-1.72-4.46-.06-.47.56-1.19,1.06-1.06-.47-1.16-.92-1.23-.52-3.05.85,1.1.54-.51.67,1.16.12-1.61.69-2-.61-3.57,1.08.42,1.09-1.36.69-2.06l-.56,1.2a7.53,7.53,0,0,1-.3-2.31l1.37.2c1.08-3.46-3.69-5.3-1.42-8.18-1.06-.68-.35,1.84-1.55,1.27-.07-1.49,1.55-3.35,1.47-3.81.39-2.15-2.21-1.53-2.14-3.71a1.46,1.46,0,0,1-2.36-.63c-.12-1.48,1.59-2.17,2.15-1.32.11.34,0,.54-.16.56.26.43.59,1,1,.34l-.51-.1c.33-.82-.13-2.82.73-2.5-.66-1-.86-.32-.93.55.29-2-.57-2.93-.51-5-.19.36-.68.76-.74.46,0-2.95-1.12-1.06-1.73-2.92.45-1.24,1.78,0,.73-1.77.2-1.28,1.17-.53,1.66-.15-1.31-1.54-.2-3.4-.27-4.45l.59.84a3.59,3.59,0,0,1-.56-1.42l-.8.75c0-.58-.08-1,.31-1.13-.74-.41-1.43.8-2.52-.1.29-.84-1-2.07.14-2.62.12,2.37,1.16-.56,1.82,1.31a2.15,2.15,0,0,1-.31-1.37c.12-.12.28,0,.38.14.56-2.45-1.6-.65-2.15-2.9.77.11,1.16-.86.91-1.18.24.9-1,.73-1.78,0,.13-1.57-.84-1.44-1-2.2l0,.92c-.76-.11-.87-.84-1.37-1.77.51-.23.62.8.76.38-1.51-.76.54-2.84-.7-4.15.26-.85,1.26-.45,1.4-1.17-1.39-1.46.44-2.17-.89-3.75-.74.81-.49.82-1.8-.16.54.91,1.09,1.83,1.57,2.76-.62-.5-1.24-1-1.9-1.5.29.89,1.13,1.72,1.13,2.3-1-.69-.74-.66-1.38,0,1.05-1.64-1.54-2.16-1.07-3.85l2.27-.66c.3-2.45-2.39-3.39-2.73-6.32l-.1,1c-1-.06-.68-1.65-1.33-2.41.77-.18.86-.83,1.2-1.38-.52.24-.71-2-2.28-1.71l.52-1.56c-.44-2.34-3.06-1.69-3.61-3.87,1,.31,1.2-.84,2.31.34-.26-.7-.37-1.39-.88-1.2.3-.59-1.73-1.54-1.28-2.47-.44-.16-1.22,0-1.49-.74a.5.5,0,0,1,.36-.15c-.36.15-1-1-1.53,0,1.33-3.06-2.76-5.77-1.65-8.48-.45-.69-.93-1.45-1.38-2.22s-1-1.47-1.3-2.12c.25,0,.35-.17.41.11-.28-2.15-2.61-.11-2.93-2.53.6-1.64,1.18.78,1.27-.1,2.17-1.46-1.59-2.34-1-4.43l.31.26c.12-.74-.43-1.28-1.11-1.86-.33-.29-.7-.59-1-.93a3.72,3.72,0,0,1-.87-1.14.56.56,0,0,0,.35-.18c-1.84-.51-3.5-2.46-4.77-3.89,1.17,0,.9.46,1.6-.37-.55-.65-1.3,1.05-2.4-.24.2-.75,0-2.05.86-2.76l.86,1.34c.8-1.45-1.09-1.76-1.31-2.61l.59-.23c-1.42-2-2.83-1.15-4.14-3.41l-.24.49c-2.08-.33.09-1.5-1.68-2l1.06-1.24a30.2,30.2,0,0,1-4.34-3c1.52.08,3.12,1.39,4.4,2-.53-.78-1.91-2.56-2.83-2.51.35.22.93.39,1,.84a6,6,0,0,1-4.12-2.6c1.33-.77.79-1.88,0-3.08s-1.75-2.51-1.22-3.78c-2.92-1.91-3.69-5.46-6.32-8.31-1,2.58-.77-.82-2.49.94-.68-.59-.88-.87-.81-1l-.66-3c.12-1,1,.29,1.33-.13-1.15-1.61.24-1.3-.13-2.72-.48.79-1.38.3-1.88-.75l.2,1.93c-2.79-1.19-.05-3.13-2.85-4.34l1.15.14c-1.27-.77-3.53-3.89-5.91-3.57,0-.38.3-1.08.85-.74-2.1-2.68-6.69-4-7.66-6.72l.6-.23c-.56-.33-1.56,0-1.69-1,.21-.15.6-.24.42-.47-.38-.1-1.92-.45-2.26-1.28l1,0c-1.78-2.9-4.74-2.4-7-4,1.24-1.26-.21-3.47-.95-4.56l.2-.15c-2.6-2.82-5.7-3.43-8.74-5.35C133.54,64,129,61.2,127.08,58c.18.6-1,.95-1.57.65-.37-.82-2.51-.64-1.33-1.74l.2.22c.61-1.59-.94-2.43-1.9-3.35l-1.58,1.42c-.54-4.62-7.55-5.21-7.2-8.52-1-.14-1.77-.83-2.75-1l.77-.83a22.45,22.45,0,0,0-4.81-4.23l1-.26c-1.23-1.09-3.67,1.23-4.87.34l.71-1.61c-2.24-1.75-3.61-4.71-6.8-5.2.19-.17.55-.5,1-.28-1-.87-3.52-4-4.49-1.87.88-1.25-2.3-1.86-3.94-2.2l.83-.77c-1.88.42-2.12.7-3.85,0-.27-.36.19-.94.51-.39-.86-1.28-1.52.25-2.62-1.21l.93-.23c-1.17-.9-1.29-.52-2.42-.26C81.81,26.62,80.64,25,81,24a1.66,1.66,0,0,1-2.2,0c.1-.38.49-.42.69-.43-1.72-1.93-3.78-.83-4.69-2.6a.94.94,0,0,0,.09-.72,15.57,15.57,0,0,1,2.83,1.89c.53-.88-.74-1.87,1.08-2.42-1.49,0-4.25.34-5.34-.86a1.12,1.12,0,0,1,0-.41l.19,0a1.21,1.21,0,0,0-.93-.35,4.3,4.3,0,0,0-1-.89c.25-.83-1.4-1.28-2.08-1.7-.47,1-1.3.37-.88,1.65-.08-.13.19,0,.68.17a1.17,1.17,0,0,0,.35.06l-.1.06c.48.22,1.09.52,1.77.87-.83.2-1.63.31-2.1-.65-.7.44-1.44.88-1.82,1.07-.2-1.89-1.7-3.58-1.52-4.59-1.22-.28-2.56-.81-3.89-1.1a4.93,4.93,0,0,0-3.73.27c-.73,0-.47-.86-.58-1.27.45,0,.88.18,1.2,0-1.49,0-3.83-1.45-4.71-.19-1.35-1.26,1.43-.9-.88-1.56l.47-.3a5,5,0,0,0-2.87-1.63,14.61,14.61,0,0,0-3.17,0c-2.14.11-4.28.28-6.3-2,.29.28.43.42.43.68a17.85,17.85,0,0,0-4.2-1.63c-1.47-.38-3-.59-4.48-.85-3-.47-6-.93-8.72-2.42-1.59-.71-1.92.25-3,.82l-.21-1.24L19.51,2.9c-1.26.34-2.24-.42-3.34-1.16s-2.32-1.33-3.93-.4l.37.82C11.49,2,9.07,2.52,9.26,1.6c-.11.15-.37.85-.8.43l0-.63L5.69,2.51C3.55,2.1,6,0,2.8,0,1.62.31-.41,2,.07,2.43c.47,0,1.22.32,1.3.95l-1,.39c0,1.87-.62,3.81,1.89,5L3.87,7.5l.58.87L3,8.51c.85.8,1.31,0,1.87-.53a1.59,1.59,0,0,0,.74,1l1.63-1.8c.21.73-.73,1.46.38,1.85.78-.84-.76-1.63.54-2.19.82.85.57,1.51,1.54.82a.8.8,0,0,1-.46,1c.85-.55,2.23-.17,2.71-1.14C12.4,8,13.11,8,13.71,8s1.08.22,1,1.1a4.27,4.27,0,0,1,2.38-1.27c-.8,1-.08,1.08.77,1.2s1.82.34,1.51,1.43a2.84,2.84,0,0,1,2.65-1,8.44,8.44,0,0,0,3.21-.12c-.13.13-.38.39-.53.27,1,.33,1.22.94,1.81,1.4.42-1.52,2.1-1.53,3.18-2.3,1,1.74-1.15,1.64-1,3.15.19-1.26,2.45-.79,2.25-1.92.77,1.12.74.64.94,2,.61-1.86,1-.1,2-1.07,1.16,1.28-.1,1.86,1.58,1.67.28.39,0,.66-.27.83A3.19,3.19,0,0,1,34.49,13.72ZM70.38,25.07v0l-.72-.35Zm2.79,1.6A10.85,10.85,0,0,0,72,25.93c.1-.39.41-.68.68-.5C72.38,25.57,72.92,26.14,73.17,26.67ZM71,16.47c.54.11.59.39.54.63a6.72,6.72,0,0,0-.88-.33l-.12.09A1.8,1.8,0,0,1,71,16.47Z"/><path class="cls-1" d="M69.46,17.31a1,1,0,0,1-.23,0,1.88,1.88,0,0,0,.15.38l.33-.22Z"/><path class="cls-1" d="M225.89,257.26l0-.07a.43.43,0,0,1-.14.16A.74.74,0,0,1,225.89,257.26Z"/><polygon class="cls-1" points="107.55 54.79 107.73 54.57 107.35 54.58 107.55 54.79"/><path class="cls-1" d="M223.82,275.54a.52.52,0,0,0-.27.26C223.62,275.78,223.71,275.67,223.82,275.54Z"/><path class="cls-1" d="M224.2,283.28l-.31,1.13A5,5,0,0,0,224.2,283.28Z"/><path class="cls-1" d="M224.08,289.27a2.22,2.22,0,0,0,.49.08,0,0,0,0,0,0,0Z"/><path class="cls-1" d="M208.74,196.41a.7.7,0,0,0-.11-.21C208.28,195.75,208.46,196.07,208.74,196.41Z"/><path class="cls-1" d="M217.54,223.13a4.72,4.72,0,0,1-.7-.79C216.85,222.85,216.91,223.23,217.54,223.13Z"/><path class="cls-1" d="M197.65,167.48h0l-.07-.18Z"/><path class="cls-1" d="M216.6,221.06a1.56,1.56,0,0,0,.24,1.28A2.37,2.37,0,0,0,216.6,221.06Z"/><path class="cls-1" d="M225.2,315.1l0,.29a.32.32,0,0,1,.18,0Z"/><path class="cls-1" d="M225.35,315.41l.15.31C225.5,315.58,225.48,315.45,225.35,315.41Z"/><path class="cls-1" d="M225.82,316.38l-.32-.66C225.51,316,225.5,316.24,225.82,316.38Z"/><path class="cls-1" d="M225.26,307.18l-.41-.07A.86.86,0,0,0,225.26,307.18Z"/><path class="cls-1" d="M225,304.79c-.06.58-.78,1.49-.48,2.27l.33.05C224.22,306.78,225.72,305.29,225,304.79Z"/><path class="cls-1" d="M229.39,294.46l-.18,2c.4-.38,1-.88,1.12,0C231.45,293.9,229.4,297.11,229.39,294.46Z"/><path class="cls-1" d="M229.58,288.17c.28,1.07.63-.05.88,0C230,287.5,229.91,287.34,229.58,288.17Z"/><path class="cls-1" d="M225,243.11l1,0C225.79,242.27,225.66,243.13,225,243.11Z"/><path class="cls-1" d="M218.58,235.34l-.51.9,1,.23C218.89,236.1,218.75,235.72,218.58,235.34Z"/><polygon class="cls-1" points="224.92 229.14 225.12 229.48 224.52 228.16 224.92 229.14"/><path class="cls-1" d="M203.24,155.57l-1.05.75C202.63,156.75,204,156.28,203.24,155.57Z"/><path class="cls-1" d="M186.21,127c.33-.65.15-1.66-.68-1.8C185.87,125.87,185.87,126.76,186.21,127Z"/><polygon class="cls-1" points="120.73 52.94 121.51 53.07 120.34 52.5 120.73 52.94"/><path class="cls-1" d="M286.45,240.94c-.26-.25-1-.55-1-.2l1.09.79Z"/><path class="cls-1" d="M283.32,241.69a4.62,4.62,0,0,0,2.43,1.83c-1-.89-.46-.73-1.65-1.76,0-.34.63-.29,1,0-.26-.25.47-.3-.19-.82-1.1-.1-1.37.33-.85,1.19A1.84,1.84,0,0,1,283.32,241.69Z"/><path class="cls-1" d="M267.53,267.34l.23-.09A.29.29,0,0,0,267.53,267.34Z"/><path class="cls-1" d="M257.27,282.74a.3.3,0,0,0-.12-.33C257.15,282.57,257.16,282.7,257.27,282.74Z"/><path class="cls-1" d="M254.3,284.51l.18-.1C254.34,284.4,254.24,284.42,254.3,284.51Z"/><path class="cls-1" d="M267.53,267.34l-.61.22C267.27,267.8,267.32,267.5,267.53,267.34Z"/><path class="cls-1" d="M284.31,246.84a.85.85,0,0,0-.19-.4,1.43,1.43,0,0,1,0,.29Z"/><path class="cls-1" d="M270.53,259.66l.06-.14c-.11-.11-.25-.23-.41-.36Z"/><path class="cls-1" d="M273.29,254c-.11.1.86.67,1.27.94-.37-.28-.52-.48-.54-.63A5.5,5.5,0,0,0,273.29,254Z"/><path class="cls-1" d="M279.6,246.05l-.05-.23C279.57,245.88,279.57,246,279.6,246.05Z"/><path class="cls-1" d="M268.16,263.47a2.05,2.05,0,0,0-.38-.14A1.46,1.46,0,0,0,268.16,263.47Z"/><path class="cls-1" d="M154.77,252.08l.12-.16C154.8,252,154.74,252,154.77,252.08Z"/><path class="cls-1" d="M152.29,243.29h.12l.39-.5Z"/><path class="cls-1" d="M249.84,288.31h0C249.86,288.11,249.82,288.19,249.84,288.31Z"/><path class="cls-1" d="M220.5,315.43c-.6,1-1.61-.29-2.17,1.05C218.68,316.2,220.29,316.42,220.5,315.43Z"/><path class="cls-1" d="M284.11,246.92a1.28,1.28,0,0,1-.11.24A.31.31,0,0,0,284.11,246.92Z"/><path class="cls-1" d="M218.33,316.48h0l-.05.14Z"/><path class="cls-1" d="M242.27,298.89a1.85,1.85,0,0,0,.45.22A1.42,1.42,0,0,0,242.27,298.89Z"/><path class="cls-1" d="M249.67,292.36l-.26.1A.39.39,0,0,0,249.67,292.36Z"/><path class="cls-1" d="M240.06,303.7c-.15,0-.29,0-.31.19a.42.42,0,0,0,.14.06C239.82,303.8,239.83,303.68,240.06,303.7Z"/><path class="cls-1" d="M236.39,307.48l.23.09.08-.16Z"/><path class="cls-1" d="M167.43,261.94a5,5,0,0,1,.49-.91C167.45,261.68,166.67,261.37,167.43,261.94Z"/><path class="cls-1" d="M283.75,246.56c.23.15.34.26.36.36a1.11,1.11,0,0,0,0-.19A1,1,0,0,0,283.75,246.56Z"/><path class="cls-1" d="M246.37,309.94l-.75.53A2.3,2.3,0,0,0,246.37,309.94Z"/><path class="cls-1" d="M193.23,289.68l-.23-.07C193,289.69,193.1,289.72,193.23,289.68Z"/><path class="cls-1" d="M243.9,312.5a1.92,1.92,0,0,0-.9-.18,1.68,1.68,0,0,0,.13.28Z"/><path class="cls-1" d="M167.93,261h0Z"/><path class="cls-1" d="M162,259.38c.59.53,1.23-.86,1.91-1.39,1,.3-.38,1.11-.63,1.89.7.1,1.94-.62,2.23-.28-.13.21-.13.33-.4.49,1.25-.46,1.43,1.2,3,.59a1.53,1.53,0,0,1-.17.34,9.68,9.68,0,0,1,1.27-1.58c.29.22,1.13-.25.58.56-.14-.17-.42.11-.7.26l.57-.06c-.68,1.26-.71,0-1.4.78.85.15,2.28-.13,2.42.56-.84,1.08-1.28-.57-1.54.84-.09-.33-.2-.65-.3-1-1,2-.3-.46-1.38,1.64.58,1,1.4.36,2,1.42.71-.37.7-.87,1.41-1.25,2.12.14-1.42,3.37.69,2.87.85-.45,2.13-1.6,2.13-.36l-1.28.91c.7.86,2-1.15,2.1.41-.57.28-1-.25-1,0-.32,1.39,1-.25,1.39.16l-.87,1.05c1,.68,2.6.91,3.71,1.67-.34.23-.8.37-.88.88,1.64.7,2.3,2.67,2.8,4.36l1.28-.35c.08.11-.21.55-.48.59.09.75.56-.48,1.11-.58.3.2-.18.8-.59.87,1.47.12,3.67.9,3.5,2.59l-.41.06c.23,1,2.48-.82,2.21.52l-.26,0c.91,1.8,3.09,2.8,2.69,5.06,1.5-.86.65,1.95,2.55.58-.22,1.61-.74,1.62-.39,3.34.17.39,1.54-.42,2-.17l-1,.77,1.46-.24-.94,1.19.55.19a1.07,1.07,0,0,1,.49-.85c.92.25.43,2-.06,2.39l1.9.81c-.42.26-.74.12-1.13.12,1.58,0-.94.92.5.93.16-.26.63-.38.84-.52a1.69,1.69,0,0,0,.94,2l-.77.39c.61,1.18,1.93,2,2.77,3.27,0-.66,1.3-1.41,1.67-1.12l-1,.88c.83-.22.14-.66,1.29-.74.19.55-1,1.15-1.54,1.13l.76.3c-.3.25-.56.24-1,.48.83-.22-.42,1.69,1,1.23l-.3.25a34,34,0,0,0,2.26,2.54c1-.6,1-.06,2-.25.18.95,0,2.24.62,3.11.87.35.92-.31,1.67-.38-.84.59-.2,1.46-1.12,1.37a7.69,7.69,0,0,0,2.6,2.27c.27-.37.32-.64.68-.73.3.17,0,.8-.47,1l-.13,0c2.27.83-.49,5.16,2.09,5.37l-.13,0c.58.26,1.15.51,1.71.79.17.7-.87,0-1.19.75,2.27.63,1,2.39,2.63,3.05a2.5,2.5,0,0,0-.55.8,1,1,0,0,0-.09.37,3.5,3.5,0,0,0,.15.62,6.67,6.67,0,0,0,1.29,2.24c1.14,1.41,2.48,2.29,3.09,3.83l.2-.73c.8-.29.44.77.81,1.15.14-.54-.33-.92.14-1.1a13.45,13.45,0,0,0,3.68.81,12.17,12.17,0,0,0,3.81-.38,18.48,18.48,0,0,0,4-1.62,11.78,11.78,0,0,1,1.5-.68c.41-.16.82-.34,1.21-.53,1.12-.61-1.69-3.34.59-2.93l.47,1.3a6.74,6.74,0,0,1,2.46-3,6.57,6.57,0,0,0,2.48-2.83c.09.33.36.63.17.78,1,.38,1.42-1.27.9-1.84.34-.2.54.46,1,.59.77.06.11-1.78,1-1.27.14.08.11.33.09.44-.07-.56,1.22-1,.22-1.56,1-.25.94-1.53,1.89-1.59-.55-1.21,1.5-.7.35-2,1.25,1.31,2.16-.14,1.93-1.13.27.51.76,0,1.15.71a1,1,0,0,0-.15-1.71c2.45.6.31-3,2.83-1.61a31.63,31.63,0,0,1,2-5.46c1.35,1.2-1.06,1.59.42,2.74.51-1.74-.13-3.47,1.23-4.45.45-.18.46.67.61,1,.44-1.75,2.14-2.37,2.21-4.15a.87.87,0,0,1,.2.55c.13-.27.61-.38-.06-.85v.36c-1.22-.35-1.31-2.4-1.79-2.82,1.6,1.8,1.32-.78,3.25,1.6a1.28,1.28,0,0,0-.65-.95c.3-.13.61,0,.94.58.25-1.09-.67-1.31-.1-2,.32.24.33.48.65.83-.35-.84-.69-1.66,0-2.1.16.18.47.28.33.47.67-1.18-.39-3.06,1.05-3.84,1.18,1.34.76-.09,2,.69l.09-.9-.78-.15c.41-.56-.14-1.66.59-1.88l.23.77.47-1.24-.87.3c-.26-1-1.61-1-.77-1.52,0,.24.38-.56,1.31-.38h0c-.22-.54-.45-1.11.14-1.33.47.15,1.33,1,1.64,1.08-.87-1,.59-1.54-.31-2.61a3.07,3.07,0,0,0,1,.76l-.7-.78c.44-.09.6-.05,1.1.33.68-.71-1.76-.75-.47-1.28,0,.12.18.16.21.4,1-.75.6-2.22,1.57-2.85,1.45.52-.16,1,1.1,1.33.56-1.44.11-3.6,1.14-4.68l-.28.15c-1.72-1.25,1.45-.41,1-1.56,0,.24.9.8.72.64.79-.7.57-2,.75-3.68l.38.44c.73-.27,1-1.22,1.54-1.65-.38-.43-.13-.71-.93-.9,3.66-.22.36-4.07,3.45-4.36-.09.19.19.67.27.52l.26-1.54c-.87-.34-.59-.1-1.37-.17a1.31,1.31,0,0,1-.4-1.31c.23.87,1.31.7,1.9.69-.27-.1-.5-.33-.76-.44,1.81.09-1.58-1-.11-1.4l.4.28c0-.47-.43-1.09-.1-1.4,1,.35.24.6,1,1,.23-.56-1.23-2,0-2,.14.36,0,.68.11,1,1.39.07,1.14-.14,1.53-.43l-.05,0,1-.63-.42.07c-2.12-2,.25-1.59-.9-3.33,1.08,1.67.81.61,1.85,1.23.42-.07.93-.25,1.18,0-.65-.87,1-.35.09-1.61.37.15.27-.43,1.09.11,0-.69-.67-.18-1.08-.45-.74-1.45,2.47-1.26,1.46-3.32-.13-1.39-1.21-2.18-1.29-3.46.72,0,1.13.92,1.13.92.78-.28.89-.73.75-1.43.25.26.56.28,1,.33.11-.45-1.14-.91-.35-1.19a8.25,8.25,0,0,1,1.19,1.11c-.08-.64-.49-1.43-.56-2.08.67.17.77.76,1.08,1.13,0-.69.17-1.71-.7-2.36l-.53.18c.06-.23.88.31,1,.55.52.85-.67.51-1,.36l-.05-.46c-2.22-.67-.37,1.57-.85,2.22l-1.34-1,.87,1.34c-.46,0-1.35-.36-1.39-.82-1,.14.3.72-.74.74a.3.3,0,0,1-.25-.15l.2.71c-.27-.25-1.09-.45-.73-.64-1.3.45.39,2-.9,1.75l-.05-.12c-.13,1.48,1,.67,1.83,2.25l-3-.76,1,.68c-.1.11-.31.31-.72.05.5.85.51.16,1.08.79-1.3.1-.41,1.91-2.21,1.16.72.64.94-.25,1.18.69-2-.78-.07.91-1.21,1-.87-.66-.09-.92-1.23-.82,1.44,1.18-.92.9-.85,1.52,1.28.7,0,1.3,0,2.3-.41-.28-1.49,1.09-2.34,1.56l-.2-.13c1.22.83.58,1.44.56,2.13-.77-.44-1-.7-1.21-1.18l-.27.51a1.18,1.18,0,0,1,.46,1l-.9-.65c-.3.71.41,2-.71,2.5.87.54,2.88.67,3,1.92-.5-.23-1.35-.65-1.42-1,0,.11.25.5-.05.55l-.61-.82c-.58.2.57.58.32.86-.69-.39-.63,0-1.15-.39,0-.12.44-.12.23-.39a1.84,1.84,0,0,1-1.57.34c.41.19.93.52.88.83-.32.7-1-.23-1.53,0,.39.43-.34.58.68,1.17-.11.19-.62,0-.94-.12.27.6-.76,1.69.55,1.92l.12-.05s0,.05,0,.08h0c.37,1.72-1.94,2-2.14,3.39l-.34-.2c0,.89-.63,1.61-.18,2.52-.11.2-.89.1-1.25-.22,0,.65.3.94-.7,1.33-.29-.86-.63-.14-.12-.78-.69.48-1.32.3-.82,1.55-.72-.76-1.39-.17-1.32.3l.9-.08a1.94,1.94,0,0,1-.61.95l-1-.87c-2.17.47.88,3.86-2.07,3.4.56.84,1-.36,1.73.53-.54.51-2.55.11-2.67.29-1.15.42,1.13,1.82.15,2.41.47.15,1.6.74,1.55,1.64-.54.51-2.14-.36-2.21-.95.06-.17.23-.15.36-.06,0-.29,0-.65-.61-.7l.35.34c-.6,0-1.09.88-1.62.25.07.7.52.63,1,.43-1.09.37-.83,1.17-1.74,1.68.3,0,.84.23.75.35-1.27.8.39,1,0,1.9-.9,0-1.31-1.14-1.35,0-.73.2-1.1-.62-1.29-1,.26,1.23-1.39,1-1.81,1.26l-.05-.59a.9.9,0,0,1-.24.7l.92.35c-.29.11-.42.29-.74.06.34.58,1.4.75,1.77,1.69-.6,0-.23,1.17-1.31.52,1-.64-1.1-.65-.71-1.52,0,.23-.12.41-.41.52a.35.35,0,0,1-.2-.29c-1.53.18.86,1.24.18,2.1-.49-.53-1.23-.6-1.21-.37.27-.34,1.07.54,1.26,1.2-.86.23-.13.86-.4,1.12l.46-.18c.48.54.19.77.07,1.31-.46-.31,0-.6-.33-.6.67,1.21-1.78.18-1.59,1.29-.6,0-1.07-.8-1.52-.76.19,1.23-1.33.11-1.29,1.27.9.4.75.22,1.08,1.3l.39-1.57.49,1.61c.29-.34.13-1.11.42-1.22.33.84.17.65.92,1-1.5-.42-.11,1.47-1.31,1.42l-1.82-1.51c-1.47.14-.22,2.24-1.59,2.88l.6-.06c.6.74-.46.72-.46,1.3a3,3,0,0,0-1.47-.71c.46.37-.69.72.41,1.86l-1.18-.23c-1,.53.85,2.47-.09,3.07-.41-.82-1.15-.85-1.12-1.78-.25.25-.57.38-.17.76-.51-.19.09,1.44-.68,1.16.15.34.71.95.39,1.19a1,1,0,0,1-.28-.27c.28.27-.06.82.82,1.17-2.55-.93-2,2.39-4.2,1.53a11.07,11.07,0,0,1-1.36,2.07c-.13-.2-.27-.29-.12-.32-1.21.13,1.11,2.07-.26,2.24-1.28-.56,0-.92-.62-1-1.87-1.82-.72,1.19-2.3.54l0-.23c-1-.3-.4,1.63-1.23,2.09a1.26,1.26,0,0,0-.25-.31,4.48,4.48,0,0,1-.73,3.41c-.43-1,0-.68-.81-1.37-.22.37,1.14,1.21.7,2a4.47,4.47,0,0,1-2.06-1.11c.19-.16.38-.33.56-.51-1.18-.86-.74.63-1.21.68l-.34-.53c-.79.85.15,2.11-.92,2.76l.39.31c.39,1.65-1-.34-.81.95q-.51-.6-1-1.23a8.09,8.09,0,0,1-.08,1.24,3.61,3.61,0,0,1-.54,1.46,19.34,19.34,0,0,0,.12-3.12c-.18.12-.47.5-.39,1.38,0-.21,0-.67.18-.48.21,1.38-.19,2.43-.88,2.68-.07-1.78-.38-1.86-.72-2s-.78-.3-.4-1.7c-.46.51-.69.08-.68-.36s.16-.9,0-1.06c-1,.72-1,.72-1.05.64s-.06-.06-.22,0a4.32,4.32,0,0,0-1,.43c-.34-.31-.39-.48-.26-.59l.66-1.85c.48-.62.68.12,1.15-.18-.3-.94.72-.84,1-1.72-.71.53-1.26.29-1.23-.36l-.63,1.22c-1.78-.58,1.26-2-.52-2.61l.88,0c-.72-.42-1.27-2.29-3.32-1.92.19-.25.69-.72,1-.54-.59-1.61-3.63-2.21-3.29-3.92l.58-.2c-.31-.18-1.25.11-.94-.53.22-.11.58-.2.53-.35-.26,0-1.33-.16-1.24-.7l.76,0c-.2-1.81-2.7-1.29-3.78-2.21a2.69,2.69,0,0,0,1.16-3l.22-.12c-.88-1.72-3-1.94-4.56-3,1-2-1.45-3.49-1.59-5.56-.1.4-1.14.76-1.47.61,0-.54-1.67-.19-.32-1.09l.06.14c1.1-1.19.25-1.63-.11-2.19l-1.77,1.17c.72-1.61-.19-2.36-1.06-3s-1.76-1.13-1-2.35c-.67,0-1-.41-1.66-.41l.9-.69a5.78,5.78,0,0,0-1.85-2.59l.82-.28c-.47-.68-3.19,1.28-3.71.75l1.16-1.25c-.93-1.06-.72-3.12-2.78-3.19.2-.15.6-.43.8-.3-.39-.54-.85-2.69-2.43-1,1.13-1-.85-1.19-1.85-1.31l.91-.65c-1.49.47-1.79.71-2.67.31,0-.25.53-.74.51-.33,0-.92-1.14.29-1.29-.73l.75-.25c-.44-.58-.68-.28-1.56,0-.64,0-.73-1.19-.07-2-.52.35-1.39.63-1.47.12a1,1,0,0,1,.65-.38c-.28-1.4-2.17-.41-1.95-1.77a1.3,1.3,0,0,0,.38-.57c.65.72,1.13,1.33,1,1.33.74-.71.33-1.4,1.78-1.93-1,.07-2.93.46-3.13-.41a2.91,2.91,0,0,1,.18-.32l.14,0c0-.2-.23-.24-.46-.23a1.26,1.26,0,0,0-.22-.66c.54-.66-.31-1-.56-1.27-.77.82-1,.34-1.32,1.33,0-.1.14,0,.36.11a.42.42,0,0,0,.2,0l-.09,0c.2.16.46.38.73.63-.62.19-1.18.3-1.05-.44-.65.37-1.33.74-1.66.9.74-1.48.61-2.81,1.18-3.61-1.27-.4-2.31-1.65-4.31-.63-.43,0,.14-.7.28-1,.28,0,.43.16.72,0-.87-.07-1.6-1.22-2.73-.24-.16-1.07,1.28-.67.27-1.29l.42-.23c-.09-3.34-5.29.31-5.16-3.64a.81.81,0,0,1-.12.59c-.63-1.48-2-2.2-3.26-3a5.62,5.62,0,0,1-2.93-3.36c-.37-.84-1-.16-1.86.1l.61-1.05-1.53.57c-1.56.07.19-3.64-2.19-3l-.34.76c-.34-.44-1.67-.64-1-1.33-.13.08-.65.57-.57.1l.37-.51-1.72.07c-.57-1,1.62-1.92.46-2.93-.6-.14-2.37.54-2.45,1a1,1,0,0,1-.12,1.19l-.6,0c-1.16,1.46-2.57,2.79-2.35,4.57l1.36-.41-.31.89-.61-.38c-.18.93.47.47,1,.23a1.87,1.87,0,0,0-.3,1l1.73-.93c-.35.64-1.16.94-.95,1.59.81-.43.67-1.53,1.52-1.58-.18.92-.69,1.4.13,1.11a1.14,1.14,0,0,1-.78.66c.69-.2,1.06.48,1.83-.18-.28,1.08,1.31.67.2,2,.36-.25,1.44-.63,1.79-.44-1.86,1.22,1.08,1-.47,2.66,1.59-1.16,2,.51,3.42.28-.14.08-.41.25-.41.13.31.46.06,1,.09,1.49,1.05-1.17,1.91-.91,2.87-1.37-.47,1.58-1.48,1.16-2.25,2.41.79-1,1.67-.25,2.18-1.21a3.31,3.31,0,0,1-.6,1.78c1.33-1.44.56,0,1.66-.61-.08,1.19-1,1.51-.06,1.56C163,259.3,162,259.38,162,259.38Zm16,10.29h0l-.32-.23Zm1.12,1.12a3.33,3.33,0,0,0-.44-.53c.24-.31.56-.54.66-.41C179.07,270,179.17,270.4,179.1,270.79Zm3.17-7.88c.3.08.2.29.07.48a2.55,2.55,0,0,0-.42-.23l-.12.08A3.44,3.44,0,0,1,182.27,262.91Z"/><path class="cls-1" d="M180.9,263.63c-.05,0-.09,0-.14,0s0,.2-.07.29l.32-.19Z"/><path class="cls-1" d="M267.8,267.23l0,0a.34.34,0,0,1,.17,0A.42.42,0,0,1,267.8,267.23Z"/><polygon class="cls-1" points="191.71 288.65 191.93 288.47 191.65 288.51 191.71 288.65"/><path class="cls-1" d="M275.43,261.33a.65.65,0,0,0,.31,0A.9.9,0,0,0,275.43,261.33Z"/><path class="cls-1" d="M277.47,258.06l.6-.3A1.91,1.91,0,0,0,277.47,258.06Z"/><path class="cls-1" d="M279.32,255.7a3,3,0,0,0-.4-.28h0Z"/><path class="cls-1" d="M255.77,296.76a.24.24,0,0,0,0,.12C255.76,297.23,255.8,297,255.77,296.76Z"/><path class="cls-1" d="M261.75,283.69a3.53,3.53,0,0,1,.2.67C262.15,284.2,262.28,284.05,261.75,283.69Z"/><path class="cls-1" d="M246.45,309.88h0l-.06.07Z"/><path class="cls-1" d="M261.57,284.9a.45.45,0,0,0,.38-.54C261.77,284.49,261.54,284.63,261.57,284.9Z"/><path class="cls-1" d="M285.58,244.54l.11-.1a.74.74,0,0,1-.16-.1Z"/><path class="cls-1" d="M285.53,244.34l0-.2C285.45,244.2,285.43,244.26,285.53,244.34Z"/><path class="cls-1" d="M285.38,243.72l.11.42C285.54,244,285.63,243.93,285.38,243.72Z"/><path class="cls-1" d="M283.36,247.79l.35.22A2,2,0,0,0,283.36,247.79Z"/><path class="cls-1" d="M282.93,248.9c.21-.21,1.1-.24,1.05-.71l-.27-.18C284.16,248.45,282.44,248.35,282.93,248.9Z"/><path class="cls-1" d="M276.2,251l.74-.72c-.46-.05-1.08-.11-1-.56C274.24,250.23,277,249.94,276.2,251Z"/><path class="cls-1" d="M274.23,253.43c.06-.56-.56-.28-.77-.42C273.66,253.49,273.71,253.61,274.23,253.43Z"/><path class="cls-1" d="M263.57,272.73l-.85-.56C262.63,272.59,263.05,272.37,263.57,272.73Z"/><polygon class="cls-1" points="265.88 279.1 266.63 279.09 265.93 278.43 265.88 279.1"/><polygon class="cls-1" points="258.38 277.36 258.35 277.14 258.3 277.9 258.38 277.36"/><path class="cls-1" d="M236.36,306.12l1,.81C237.36,306.58,236.4,305.53,236.36,306.12Z"/><path class="cls-1" d="M225.39,317.26c-.51-.4-1.1-.47-.95.19C224.77,317.32,225.35,317.5,225.39,317.26Z"/><polygon class="cls-1" points="202.33 285.91 202.86 285.93 202.21 285.63 202.33 285.91"/></g></g></svg>