<svg xmlns="http://www.w3.org/2000/svg" viewBox="0 0 286.55 327.71"><defs><style>.cls-1{fill:#dd654b}</style></defs><g id="Layer_2" data-name="Layer 2"><g id="Layer_1-2" data-name="Layer 1"><path class="cls-1" d="M226.46 322.36c.35.21 1.12 0 .94-.58l-1.35-.37zm2.21-4.36a2.78 2.78 0 00-3-.94c1.31.66.79.86 2.34 1.56a.8.8 0 01-.85 1c.35.2-.24 1 .61 1.27a1.87 1.87 0 00.05-2.93c.24-.19.6.04.85.04zM226 256.78l-.11.41a.81.81 0 00.11-.41zM221.06 219c.09.28.25.37.37.37-.14-.25-.27-.45-.37-.37zm.14-6.69v.39c.08-.17.12-.33 0-.39zm4.8 44.47l.29-1.06c-.41-.02-.23.56-.29 1.06zm-1 53a1.3 1.3 0 00.38.53 3.39 3.39 0 01-.17-.51zm3.77-36.42v.31a2.88 2.88 0 00.55.21zm1.23 12.82c0-.3-1.1-.31-1.6-.39a1.11 1.11 0 01.82.58 2.63 2.63 0 00.78-.19zm-.62 20.46l.17.35c-.05-.09-.1-.24-.17-.35zm-1.25-42.48a1.31 1.31 0 00.39-.16 1 1 0 00-.39.16zM14.68 9.32v-.2c-.07.11-.1.18 0 .2zM.15 3.84l.2-.07a4.42 4.42 0 000-.63zm219.74 196.43v.06c.19.28.11.11 0-.06zm-50.13-97.95c.05 1.59-2.31-.7-1.93 1.44.22-.42 2.44.17 1.93-1.44zm55.37 207.12a4.55 4.55 0 010-.53 1.16 1.16 0 000 .53zm-57.3-205.68l.05.21zm43.47 70.08a1.49 1.49 0 00-.37.43c.07-.04.22-.15.37-.43zm4.59 20.16v-.53a1.33 1.33 0 000 .53zM206 164.38c0-.29.09-.44-.19-.73a.55.55 0 00-.08.15c.17.07.27.2.27.58zm-4.47-10.22c-.06.09-.08.19-.13.28l.2.3zM46 15.58a3.63 3.63 0 01-.12-1.12c-.16.81-1.72.54.12 1.12zm179.64 294.16c-.29-.05-.44-.14-.51-.3a2.37 2.37 0 00.09.36.58.58 0 00.42-.06zM197.6 167.3c-.15-.55-.29-1.11-.49-1.64a14.5 14.5 0 00.49 1.64zM110.62 56.74l-.38-.16a.37.37 0 00.38.16zm84.29 104.36a2.42 2.42 0 00.32-1.19.76.76 0 00-.34-.06zM45.84 14.45z"/><path class="cls-1" d="M34.49 13.72c1.52.43 1.09-1.2 1.64-1.94 2 .13.57 1.3 1 2.2 1.24 0 2.52-1.12 3.36-.77 0 .25.13.39-.16.61 1.56-.71 3.59 1.07 5.47.22a.91.91 0 01.06.41 5.35 5.35 0 01.46-2c.7.23 1.61-.41 1.54.59-.42-.18-.59.17-.89.38l.87-.13c.17 1.54-1.15.1-1.5 1.06.78 0 1.67-.06 2.5-.07a3.17 3.17 0 012 .49c-.28 1.35-2.65-.56-1.67 1.13-.48-.39-1-.76-1.46-1.11.51 2.46-1-.5-.6 2.06 2 1.17 2.64.29 4.62 1.5.77-.51.27-1.1 1-1.6 3.57.08 1 4.15 3.92 3.48.94-.56 1.89-2 3.07-.45l-1.19 1.14c1.94 1.09 2.13-1.46 3.77.53-.64.35-1.8-.34-1.58 0 .82 1.77 1.35-.3 2.4.24L62.76 23c1.11.43 2.35.75 3.62 1.11a22.45 22.45 0 013.81 1.28c-.33.28-.93.42-.61 1.09a14.52 14.52 0 014.53 2.6 35.3 35.3 0 013.78 3.62l1.67-.31a.44.44 0 01-.23.75c.8 1.07.47-.58 1.23-.63a.58.58 0 01-.17 1.13c2.4.39 6.47 1.83 7.64 4.24h-.58c1.19 1.47 3.09-.71 3.82 1.18h-.39c2.89 2.78 7 4.67 8.29 8 1.51-1 2.58 3.07 4.27 1.43 1 2.37.25 2.26 2.18 4.94.58.64 1.93-.28 2.9.22l-.79 1h1.94l-.39 1.62 1 .42a1 1 0 010-1.2c1.55.61 2.3 3.15 1.9 3.65l3.45 1.68c-.4.32-1 0-1.55-.06 2.31.38-.59 1.2 1.51 1.56 0-.37.59-.46.79-.62.17 1.16 1.69 2.54 3 3.34l-.78.43c1.87 2 4.53 3.61 6.77 5.73a1 1 0 011.41-1.43l-.62 1.2c1-.19-.36-1 1.19-.91.74.9-.44 1.61-1.22 1.47l1.33.63c-.2.34-.58.26-1 .57 1-.2.86 2.6 2.43 2.14l-.21.34c2.22 2.13 3.56 2.75 5.4 4.45.82-.78 1.35.08 2.52-.06 1.08 1.54 1.92 3.61 3.57 5.08 1.51.7 1-.36 2-.34-.63.81 1 2.31-.33 2a30 30 0 005.49 4.06c0-.55-.11-1 .28-1.06.55.32.67 1.29.26 1.57h-.19c3.76 1.64 3.84 8.33 7.42 9.07h-.2c1 .5 2 1 2.91 1.55.82 1.18-1.14-.12-.91 1.09 3.53 1.34 3.31 4.11 6 5.44-.45 1.79.77 3.2 2.18 4.59s2.93 2.83 3.07 4.53l.46-.56c1 .14.24.94.44 1.48.39-.4 0-1 .6-.91 4.55 4.43 6.9 11 9.77 16.64 1.1 2 3.83-.86 3.9 2.58h-1.55A20.76 20.76 0 01186 142c.58 1.06 1.21 2.07 1.8 3.1a14.63 14.63 0 002.09 2.87c-.4-.1-.75.08-1-.33-.4 1.32 1.6 3.23 2.31 2.9.25.68-.55.46-.71 1-.06 1.11 2.22 1.64 1.6 2.52-.1.15-.4-.11-.55-.23.35.18.66.85 1 1.35s.58.85 1 .33c.22 1.81 1.79 2.84 1.76 4.38 1.5.32.66 3 2.38 2.52-1.72.62-.07 3.34 1.1 4.06-.64-.14-.19 1.11-1 1 .47 1.16 1.19 2.11 2 1.56-1.2 2.94 3.3 3.74 1.16 5.93.56.79 1.11 1.56 1.61 2.34s.93 1.57 1.36 2.35c.87 1.56 1.66 3.11 2.39 4.65-1.75.44-1.33-3.49-3.08-2.76 1.68 2.79 3.78 4.08 4.3 7.24 0 .87-.87-.22-1.25-.39 1.59 2.86 1.52 6 3.24 8.46-.17 0-.43-.21-.64-.45.21.52.1 1.32.87 1.05l-.36-.47c.9-1.18 3 1.51 3.64 1.45-1.26-.16-1.21.56-1.26 1.23s-.23 1.3-1.85.93a1.07 1.07 0 001.23.46c0 .58-.3.82-1 .44.9 1.84 1.58.94 2 2.72-.39.09-.62-.23-1.12-.3 1 .71 1.93 1.43 2 3-.26 0-.52.21-.62-.24.71 2.55 3.12 3.93 2.93 7-1.85-.48-.36 1.1-1.79 1.55l.75 1.45.58-.77c.25 1.35 1.56 2.33 1.31 3.59l-.8-.88.78 2.47.27-1.54c1 1.22 1.83-.51 1.78 1.37-.22-.34.26 1.36-.47 2.23a2.4 2.4 0 011 2.27c-.43.34-1.67.08-2 .3 1.34.45.88 3.12 2.33 3.74a1.57 1.57 0 00-1.27 0l1.09.38c-.21.69-.35.8-1 .81.14 1.92 1.77-.92 1.34 1.46-.11-.16-.25 0-.46-.39 0 2.32 1.39 4.26 1.17 6.43-1.4.83-.63-1.77-1.78-.88.69 3 2.66 6 2.73 8.92l.08-.56c2.16.12-.71 2.3.44 3.65-.2-.35-1.22-.33-1-.26-.1 2 1 4 2 7l-.58-.31c-.35 1.23.08 3.13 0 4.43.58.32.56 1.06 1.31.53-2.7 4.25 2.39 7.35.16 11.09-.05-.42-.57-1-.54-.62.27 1 .53 1.95.77 2.93.9-.32.53-.44 1.19-1.13a2.54 2.54 0 011.13 1.87c-.72-1.29-1.48.15-1.94.77.27-.12.6 0 .88 0-1.51 1.7 1.88.11 1 2.33l-.5-.07c.32.77 1 1.45.95 2.33-1 .44-.57-.81-1.45-.79.16 1.19 2.22 2.21 1.24 3.39-.34-.49-.4-1.23-.74-1.71a2.62 2.62 0 00-1 2.29v-.09l-.4 2.09.3-.55c2.9 1.3.73 3 2.69 4.94-1.86-1.85-1-.25-2.24-.32-.3.54-.62 1.36-1 1.16 1 .89-.66 1.66.86 2.91-.38.09 0 1-1 .88.4 1.23.66-.34 1.15-.27 1.47 1.84-1.29 4.63.69 7.29.9 2.35 2.24 2.71 3 4.89-.57.79-1.45-.53-1.45-.53a3.65 3.65 0 00.18 3.26c-.36-.21-.63.05-1 .42.16.91 1.46.53.95 1.77a5.46 5.46 0 01-1.61-.82c.41 1.05 1.2 2.08 1.61 3.17-.66.34-1.06-.61-1.53-1 .38 1.24.8 3.21 1.9 3.54l.33-.82c.08.45-.91.28-1.12 0-.9-1 .28-1.58.67-1.66l.3.78c2.23-.95-.55-3.17-.51-4.78l1.7.57-1.48-1.56c.42-.37 1.33-.67 1.63.11.75-1.2-.66-1 .2-2 .13-.12.22-.08.29 0l-.57-1.09c.37.2 1.17-.26 1 .44.83-2.07-1.45-3.17-.23-4l.11.16c-.73-2.76-1.24-.2-2.8-2.2l2.92-1.6-1.23-.2c0-.29.08-.86.57-.79-.9-1-.51.22-1.34-.35 1-1.46-.79-3.79 1.13-4.24-1-.43-.62 1.38-1.37-.06 2.06-.56-.48-1.68.39-3 1.11.31.62 1.56 1.49.22-1.87-.63.23-2.5-.19-3.54-1.45.05-.77-2.28-1.41-4 .5.08.52-3.44.9-5.15h.25c-1.49-.2-1.35-1.95-1.76-3.17a1.61 1.61 0 011.69.81l-.1-1.18a1.87 1.87 0 01-1-1.33l1.12.2c-.21-1.57-1.6-3-1.06-5.13-1 0-2.69 1.87-3.58-.19.55-.13 1.48-.3 1.76.23-.09-.17-.52-.6-.32-1l1 .76c.32-1-.82-.41-.81-1.15.79-.06.51-.6 1.14-.55.1.18-.26.67.08.92a3.34 3.34 0 011-2.28c-.44.12-1.06.11-1.22-.49-.21-1.56.89-.63 1.21-1.59-.59-.32-.12-1.38-1.3-1.29 0-.46.5-.6.8-.81-.6-.76-.59-3.77-1.73-2.72v.22s0-.08-.07-.13c-1.48-2.52 0-5.59-.8-8.16l.39-.05c-.61-1.51-.72-3.46-1.72-4.46-.06-.47.56-1.19 1.06-1.06-.47-1.16-.92-1.23-.52-3.05.85 1.1.54-.51.67 1.16.12-1.61.69-2-.61-3.57 1.08.42 1.09-1.36.69-2.06l-.56 1.2a7.53 7.53 0 01-.3-2.31l1.37.2c1.08-3.46-3.69-5.3-1.42-8.18-1.06-.68-.35 1.84-1.55 1.27-.07-1.49 1.55-3.35 1.47-3.81.39-2.15-2.21-1.53-2.14-3.71a1.46 1.46 0 01-2.36-.63c-.12-1.48 1.59-2.17 2.15-1.32.11.34 0 .54-.16.56.26.43.59 1 1 .34l-.51-.1c.33-.82-.13-2.82.73-2.5-.66-1-.86-.32-.93.55.29-2-.57-2.93-.51-5-.19.36-.68.76-.74.46 0-2.95-1.12-1.06-1.73-2.92.45-1.24 1.78 0 .73-1.77.2-1.28 1.17-.53 1.66-.15-1.31-1.54-.2-3.4-.27-4.45l.59.84a3.59 3.59 0 01-.56-1.42l-.8.75c0-.58-.08-1 .31-1.13-.74-.41-1.43.8-2.52-.1.29-.84-1-2.07.14-2.62.12 2.37 1.16-.56 1.82 1.31a2.15 2.15 0 01-.31-1.37c.12-.12.28 0 .38.14.56-2.45-1.6-.65-2.15-2.9.77.11 1.16-.86.91-1.18.24.9-1 .73-1.78 0 .13-1.57-.84-1.44-1-2.2v.92c-.76-.11-.87-.84-1.37-1.77.51-.23.62.8.76.38-1.51-.76.54-2.84-.7-4.15.26-.85 1.26-.45 1.4-1.17-1.39-1.46.44-2.17-.89-3.75-.74.81-.49.82-1.8-.16.54.91 1.09 1.83 1.57 2.76-.62-.5-1.24-1-1.9-1.5.29.89 1.13 1.72 1.13 2.3-1-.69-.74-.66-1.38 0 1.05-1.64-1.54-2.16-1.07-3.85l2.27-.66c.3-2.45-2.39-3.39-2.73-6.32l-.1 1c-1-.06-.68-1.65-1.33-2.41.77-.18.86-.83 1.2-1.38-.52.24-.71-2-2.28-1.71l.52-1.56c-.44-2.34-3.06-1.69-3.61-3.87 1 .31 1.2-.84 2.31.34-.26-.7-.37-1.39-.88-1.2.3-.59-1.73-1.54-1.28-2.47-.44-.16-1.22 0-1.49-.74a.5.5 0 01.36-.15c-.36.15-1-1-1.53 0 1.33-3.06-2.76-5.77-1.65-8.48-.45-.69-.93-1.45-1.38-2.22s-1-1.47-1.3-2.12c.25 0 .35-.17.41.11-.28-2.15-2.61-.11-2.93-2.53.6-1.64 1.18.78 1.27-.1 2.17-1.46-1.59-2.34-1-4.43l.31.26c.12-.74-.43-1.28-1.11-1.86-.33-.29-.7-.59-1-.93a3.72 3.72 0 01-.87-1.14.56.56 0 00.35-.18c-1.84-.51-3.5-2.46-4.77-3.89 1.17 0 .9.46 1.6-.37-.55-.65-1.3 1.05-2.4-.24.2-.75 0-2.05.86-2.76l.86 1.34c.8-1.45-1.09-1.76-1.31-2.61l.59-.23c-1.42-2-2.83-1.15-4.14-3.41l-.24.49c-2.08-.33.09-1.5-1.68-2l1.06-1.24a30.2 30.2 0 01-4.34-3c1.52.08 3.12 1.39 4.4 2-.53-.78-1.91-2.56-2.83-2.51.35.22.93.39 1 .84a6 6 0 01-4.12-2.6c1.33-.77.79-1.88 0-3.08s-1.75-2.51-1.22-3.78c-2.92-1.91-3.69-5.46-6.32-8.31-1 2.58-.77-.82-2.49.94-.68-.59-.88-.87-.81-1l-.66-3c.12-1 1 .29 1.33-.13-1.15-1.61.24-1.3-.13-2.72-.48.79-1.38.3-1.88-.75l.2 1.93c-2.79-1.19-.05-3.13-2.85-4.34l1.15.14c-1.27-.77-3.53-3.89-5.91-3.57 0-.38.3-1.08.85-.74-2.1-2.68-6.69-4-7.66-6.72l.6-.23c-.56-.33-1.56 0-1.69-1 .21-.15.6-.24.42-.47-.38-.1-1.92-.45-2.26-1.28h1c-1.78-2.9-4.74-2.4-7-4 1.24-1.26-.21-3.47-.95-4.56l.2-.15c-2.6-2.82-5.7-3.43-8.74-5.35-.45-2.95-4.99-5.75-6.91-8.95.18.6-1 .95-1.57.65-.37-.82-2.51-.64-1.33-1.74l.2.22c.61-1.59-.94-2.43-1.9-3.35l-1.58 1.42c-.54-4.62-7.55-5.21-7.2-8.52-1-.14-1.77-.83-2.75-1l.77-.83a22.45 22.45 0 00-4.81-4.23l1-.26c-1.23-1.09-3.67 1.23-4.87.34l.71-1.61c-2.24-1.75-3.61-4.71-6.8-5.2.19-.17.55-.5 1-.28-1-.87-3.52-4-4.49-1.87.88-1.25-2.3-1.86-3.94-2.2l.83-.77c-1.88.42-2.12.7-3.85 0-.27-.36.19-.94.51-.39-.86-1.28-1.52.25-2.62-1.21l.93-.23c-1.17-.9-1.29-.52-2.42-.26C81.81 26.62 80.64 25 81 24a1.66 1.66 0 01-2.2 0c.1-.38.49-.42.69-.43-1.72-1.93-3.78-.83-4.69-2.6a.94.94 0 00.09-.72 15.57 15.57 0 012.83 1.89c.53-.88-.74-1.87 1.08-2.42-1.49 0-4.25.34-5.34-.86a1.12 1.12 0 010-.41h.19a1.21 1.21 0 00-.93-.35 4.3 4.3 0 00-1-.89c.25-.83-1.4-1.28-2.08-1.7-.47 1-1.3.37-.88 1.65-.08-.13.19 0 .68.17a1.17 1.17 0 00.35.06l-.1.06c.48.22 1.09.52 1.77.87-.83.2-1.63.31-2.1-.65-.7.44-1.44.88-1.82 1.07-.2-1.89-1.7-3.58-1.52-4.59-1.22-.28-2.56-.81-3.89-1.1a4.93 4.93 0 00-3.73.27c-.73 0-.47-.86-.58-1.27.45 0 .88.18 1.2 0-1.49 0-3.83-1.45-4.71-.19-1.35-1.26 1.43-.9-.88-1.56l.47-.3a5 5 0 00-2.87-1.63 14.61 14.61 0 00-3.17 0c-2.14.11-4.28.28-6.3-2 .29.28.43.42.43.68a17.85 17.85 0 00-4.2-1.63c-1.47-.38-3-.59-4.48-.85-3-.47-6-.93-8.72-2.42-1.59-.71-1.92.25-3 .82l-.21-1.24-1.87 1.17c-1.26.34-2.24-.42-3.34-1.16s-2.32-1.33-3.93-.4l.37.82c-1.12-.16-3.54.36-3.35-.56-.11.15-.37.85-.8.43V1.4L5.69 2.51C3.55 2.1 6 0 2.8 0 1.62.31-.41 2 .07 2.43c.47 0 1.22.32 1.3.95l-1 .39c0 1.87-.62 3.81 1.89 5L3.87 7.5l.58.87L3 8.51c.85.8 1.31 0 1.87-.53a1.59 1.59 0 00.74 1l1.63-1.8c.21.73-.73 1.46.38 1.85.78-.84-.76-1.63.54-2.19.82.85.57 1.51 1.54.82a.8.8 0 01-.46 1c.85-.55 2.23-.17 2.71-1.14.45.48 1.16.48 1.76.48s1.08.22 1 1.1a4.27 4.27 0 012.38-1.27c-.8 1-.08 1.08.77 1.2s1.82.34 1.51 1.43a2.84 2.84 0 012.65-1 8.44 8.44 0 003.21-.12c-.13.13-.38.39-.53.27 1 .33 1.22.94 1.81 1.4.42-1.52 2.1-1.53 3.18-2.3 1 1.74-1.15 1.64-1 3.15.19-1.26 2.45-.79 2.25-1.92.77 1.12.74.64.94 2 .61-1.86 1-.1 2-1.07 1.16 1.28-.1 1.86 1.58 1.67.28.39 0 .66-.27.83a3.19 3.19 0 01-.7.35zm35.89 11.35l-.72-.35zm2.79 1.6a10.85 10.85 0 00-1.17-.74c.1-.39.41-.68.68-.5-.3.14.24.71.49 1.24zM71 16.47c.54.11.59.39.54.63a6.72 6.72 0 00-.88-.33l-.12.09a1.8 1.8 0 01.46-.39z"/><path class="cls-1" d="M69.46 17.31a1 1 0 01-.23 0 1.88 1.88 0 00.15.38l.33-.22zm156.43 239.95v-.07a.43.43 0 01-.14.16.74.74 0 01.14-.09zM107.55 54.79l.18-.22-.38.01.2.21zm116.27 220.75a.52.52 0 00-.27.26c.07-.02.16-.13.27-.26zm.38 7.74l-.31 1.13a5 5 0 00.31-1.13zm-.12 5.99a2.22 2.22 0 00.49.08zm-15.34-92.86a.7.7 0 00-.11-.21c-.35-.45-.17-.13.11.21zm8.8 26.72a4.72 4.72 0 01-.7-.79c.01.51.07.89.7.79zm-19.89-55.65l-.07-.18zm18.95 53.58a1.56 1.56 0 00.24 1.28 2.37 2.37 0 00-.24-1.28zm8.6 94.04v.29a.32.32 0 01.18 0zm.15.31l.15.31c0-.14-.02-.27-.15-.31zm.47.97l-.32-.66c.01.28 0 .52.32.66zm-.56-9.2l-.41-.07a.86.86 0 00.41.07zm-.26-2.39c-.06.58-.78 1.49-.48 2.27l.33.05c-.63-.33.87-1.82.15-2.32zm4.39-10.33l-.18 2c.4-.38 1-.88 1.12 0 1.12-2.56-.93.65-.94-2zm.19-6.29c.28 1.07.63-.05.88 0-.46-.67-.55-.83-.88 0zM225 243.11h1c-.21-.84-.34.02-1 0zm-6.42-7.77l-.51.9 1 .23c-.18-.37-.32-.75-.49-1.13zm6.34-6.2l.2.34-.6-1.32.4.98zm-21.68-73.57l-1.05.75c.44.43 1.81-.04 1.05-.75zM186.21 127c.33-.65.15-1.66-.68-1.8.34.67.34 1.56.68 1.8zm-65.48-74.06l.78.13-1.17-.57.39.44zm165.72 188c-.26-.25-1-.55-1-.2l1.09.79zm-3.13.75a4.62 4.62 0 002.43 1.83c-1-.89-.46-.73-1.65-1.76 0-.34.63-.29 1 0-.26-.25.47-.3-.19-.82-1.1-.1-1.37.33-.85 1.19a1.84 1.84 0 01-.74-.44zm-15.79 25.65l.23-.09a.29.29 0 00-.23.09zm-10.26 15.4a.3.3 0 00-.12-.33c0 .16.01.29.12.33zm-2.97 1.77l.18-.1c-.14-.01-.24.01-.18.1zm13.23-17.17l-.61.22c.35.24.4-.06.61-.22zm16.78-20.5a.85.85 0 00-.19-.4 1.43 1.43 0 010 .29zm-13.78 12.82l.06-.14c-.11-.11-.25-.23-.41-.36zm2.76-5.66c-.11.1.86.67 1.27.94-.37-.28-.52-.48-.54-.63a5.5 5.5 0 00-.73-.31zm6.31-7.95l-.05-.23c.02.06.02.18.05.23zm-11.44 17.42a2.05 2.05 0 00-.38-.14 1.46 1.46 0 00.38.14zm-113.39-11.39l.12-.16c-.09.08-.15.08-.12.16zm-2.48-8.79h.12l.39-.5zm97.55 45.02c.02-.2-.02-.12 0 0zm-29.34 27.12c-.6 1-1.61-.29-2.17 1.05.35-.28 1.96-.06 2.17-1.05zm63.61-68.51a1.28 1.28 0 01-.11.24.31.31 0 00.11-.24zm-65.78 69.56l-.05.14zm23.94-17.59a1.85 1.85 0 00.45.22 1.42 1.42 0 00-.45-.22zm7.4-6.53l-.26.1a.39.39 0 00.26-.1zm-9.61 11.34c-.15 0-.29 0-.31.19a.42.42 0 00.14.06c-.07-.15-.06-.27.17-.25zm-3.67 3.78l.23.09.08-.16zm-68.96-45.54a5 5 0 01.49-.91c-.47.65-1.25.34-.49.91z"/><path class="cls-1" d="M283.75 246.56c.23.15.34.26.36.36a1.11 1.11 0 000-.19 1 1 0 00-.36-.17zm-37.38 63.38l-.75.53a2.3 2.3 0 00.75-.53zm-53.14-20.26l-.23-.07c0 .08.1.11.23.07zm50.67 22.82a1.92 1.92 0 00-.9-.18 1.68 1.68 0 00.13.28zM167.93 261z"/><path class="cls-1" d="M162 259.38c.59.53 1.23-.86 1.91-1.39 1 .3-.38 1.11-.63 1.89.7.1 1.94-.62 2.23-.28-.13.21-.13.33-.4.49 1.25-.46 1.43 1.2 3 .59a1.53 1.53 0 01-.17.34 9.68 9.68 0 011.27-1.58c.29.22 1.13-.25.58.56-.14-.17-.42.11-.7.26l.57-.06c-.68 1.26-.71 0-1.4.78.85.15 2.28-.13 2.42.56-.84 1.08-1.28-.57-1.54.84-.09-.33-.2-.65-.3-1-1 2-.3-.46-1.38 1.64.58 1 1.4.36 2 1.42.71-.37.7-.87 1.41-1.25 2.12.14-1.42 3.37.69 2.87.85-.45 2.13-1.6 2.13-.36l-1.28.91c.7.86 2-1.15 2.1.41-.57.28-1-.25-1 0-.32 1.39 1-.25 1.39.16l-.87 1.05c1 .68 2.6.91 3.71 1.67-.34.23-.8.37-.88.88 1.64.7 2.3 2.67 2.8 4.36l1.28-.35c.08.11-.21.55-.48.59.09.75.56-.48 1.11-.58.3.2-.18.8-.59.87 1.47.12 3.67.9 3.5 2.59l-.41.06c.23 1 2.48-.82 2.21.52h-.26c.91 1.8 3.09 2.8 2.69 5.06 1.5-.86.65 1.95 2.55.58-.22 1.61-.74 1.62-.39 3.34.17.39 1.54-.42 2-.17l-1 .77 1.46-.24-.94 1.19.55.19a1.07 1.07 0 01.49-.85c.92.25.43 2-.06 2.39l1.9.81c-.42.26-.74.12-1.13.12 1.58 0-.94.92.5.93.16-.26.63-.38.84-.52a1.69 1.69 0 00.94 2l-.77.39c.61 1.18 1.93 2 2.77 3.27 0-.66 1.3-1.41 1.67-1.12l-1 .88c.83-.22.14-.66 1.29-.74.19.55-1 1.15-1.54 1.13l.76.3c-.3.25-.56.24-1 .48.83-.22-.42 1.69 1 1.23l-.3.25a34 34 0 002.26 2.54c1-.6 1-.06 2-.25.18.95 0 2.24.62 3.11.87.35.92-.31 1.67-.38-.84.59-.2 1.46-1.12 1.37a7.69 7.69 0 002.6 2.27c.27-.37.32-.64.68-.73.3.17 0 .8-.47 1h-.13c2.27.83-.49 5.16 2.09 5.37h-.13c.58.26 1.15.51 1.71.79.17.7-.87 0-1.19.75 2.27.63 1 2.39 2.63 3.05a2.5 2.5 0 00-.55.8 1 1 0 00-.09.37 3.5 3.5 0 00.15.62 6.67 6.67 0 001.29 2.24c1.14 1.41 2.48 2.29 3.09 3.83l.2-.73c.8-.29.44.77.81 1.15.14-.54-.33-.92.14-1.1a13.45 13.45 0 003.68.81 12.17 12.17 0 003.81-.38 18.48 18.48 0 004-1.62 11.78 11.78 0 011.5-.68c.41-.16.82-.34 1.21-.53 1.12-.61-1.69-3.34.59-2.93l.47 1.3a6.74 6.74 0 012.46-3 6.57 6.57 0 002.48-2.83c.09.33.36.63.17.78 1 .38 1.42-1.27.9-1.84.34-.2.54.46 1 .59.77.06.11-1.78 1-1.27.14.08.11.33.09.44-.07-.56 1.22-1 .22-1.56 1-.25.94-1.53 1.89-1.59-.55-1.21 1.5-.7.35-2 1.25 1.31 2.16-.14 1.93-1.13.27.51.76 0 1.15.71a1 1 0 00-.15-1.71c2.45.6.31-3 2.83-1.61a31.63 31.63 0 012-5.46c1.35 1.2-1.06 1.59.42 2.74.51-1.74-.13-3.47 1.23-4.45.45-.18.46.67.61 1 .44-1.75 2.14-2.37 2.21-4.15a.87.87 0 01.2.55c.13-.27.61-.38-.06-.85v.36c-1.22-.35-1.31-2.4-1.79-2.82 1.6 1.8 1.32-.78 3.25 1.6a1.28 1.28 0 00-.65-.95c.3-.13.61 0 .94.58.25-1.09-.67-1.31-.1-2 .32.24.33.48.65.83-.35-.84-.69-1.66 0-2.1.16.18.47.28.33.47.67-1.18-.39-3.06 1.05-3.84 1.18 1.34.76-.09 2 .69l.09-.9-.78-.15c.41-.56-.14-1.66.59-1.88l.23.77.47-1.24-.87.3c-.26-1-1.61-1-.77-1.52 0 .24.38-.56 1.31-.38-.22-.54-.45-1.11.14-1.33.47.15 1.33 1 1.64 1.08-.87-1 .59-1.54-.31-2.61a3.07 3.07 0 001 .76l-.7-.78c.44-.09.6-.05 1.1.33.68-.71-1.76-.75-.47-1.28 0 .12.18.16.21.4 1-.75.6-2.22 1.57-2.85 1.45.52-.16 1 1.1 1.33.56-1.44.11-3.6 1.14-4.68l-.28.15c-1.72-1.25 1.45-.41 1-1.56 0 .24.9.8.72.64.79-.7.57-2 .75-3.68l.38.44c.73-.27 1-1.22 1.54-1.65-.38-.43-.13-.71-.93-.9 3.66-.22.36-4.07 3.45-4.36-.09.19.19.67.27.52l.26-1.54c-.87-.34-.59-.1-1.37-.17a1.31 1.31 0 01-.4-1.31c.23.87 1.31.7 1.9.69-.27-.1-.5-.33-.76-.44 1.81.09-1.58-1-.11-1.4l.4.28c0-.47-.43-1.09-.1-1.4 1 .35.24.6 1 1 .23-.56-1.23-2 0-2 .14.36 0 .68.11 1 1.39.07 1.14-.14 1.53-.43h-.05l1-.63-.42.07c-2.12-2 .25-1.59-.9-3.33 1.08 1.67.81.61 1.85 1.23.42-.07.93-.25 1.18 0-.65-.87 1-.35.09-1.61.37.15.27-.43 1.09.11 0-.69-.67-.18-1.08-.45-.74-1.45 2.47-1.26 1.46-3.32-.13-1.39-1.21-2.18-1.29-3.46.72 0 1.13.92 1.13.92.78-.28.89-.73.75-1.43.25.26.56.28 1 .33.11-.45-1.14-.91-.35-1.19a8.25 8.25 0 011.19 1.11c-.08-.64-.49-1.43-.56-2.08.67.17.77.76 1.08 1.13 0-.69.17-1.71-.7-2.36l-.53.18c.06-.23.88.31 1 .55.52.85-.67.51-1 .36l-.05-.46c-2.22-.67-.37 1.57-.85 2.22l-1.34-1 .87 1.34c-.46 0-1.35-.36-1.39-.82-1 .14.3.72-.74.74a.3.3 0 01-.25-.15l.2.71c-.27-.25-1.09-.45-.73-.64-1.3.45.39 2-.9 1.75l-.05-.12c-.13 1.48 1 .67 1.83 2.25l-3-.76 1 .68c-.1.11-.31.31-.72.05.5.85.51.16 1.08.79-1.3.1-.41 1.91-2.21 1.16.72.64.94-.25 1.18.69-2-.78-.07.91-1.21 1-.87-.66-.09-.92-1.23-.82 1.44 1.18-.92.9-.85 1.52 1.28.7 0 1.3 0 2.3-.41-.28-1.49 1.09-2.34 1.56l-.2-.13c1.22.83.58 1.44.56 2.13-.77-.44-1-.7-1.21-1.18l-.27.51a1.18 1.18 0 01.46 1l-.9-.65c-.3.71.41 2-.71 2.5.87.54 2.88.67 3 1.92-.5-.23-1.35-.65-1.42-1 0 .11.25.5-.05.55l-.61-.82c-.58.2.57.58.32.86-.69-.39-.63 0-1.15-.39 0-.12.44-.12.23-.39a1.84 1.84 0 01-1.57.34c.41.19.93.52.88.83-.32.7-1-.23-1.53 0 .39.43-.34.58.68 1.17-.11.19-.62 0-.94-.12.27.6-.76 1.69.55 1.92l.12-.05v.08c.37 1.72-1.94 2-2.14 3.39l-.34-.2c0 .89-.63 1.61-.18 2.52-.11.2-.89.1-1.25-.22 0 .65.3.94-.7 1.33-.29-.86-.63-.14-.12-.78-.69.48-1.32.3-.82 1.55-.72-.76-1.39-.17-1.32.3l.9-.08a1.94 1.94 0 01-.61.95l-1-.87c-2.17.47.88 3.86-2.07 3.4.56.84 1-.36 1.73.53-.54.51-2.55.11-2.67.29-1.15.42 1.13 1.82.15 2.41.47.15 1.6.74 1.55 1.64-.54.51-2.14-.36-2.21-.95.06-.17.23-.15.36-.06 0-.29 0-.65-.61-.7l.35.34c-.6 0-1.09.88-1.62.25.07.7.52.63 1 .43-1.09.37-.83 1.17-1.74 1.68.3 0 .84.23.75.35-1.27.8.39 1 0 1.9-.9 0-1.31-1.14-1.35 0-.73.2-1.1-.62-1.29-1 .26 1.23-1.39 1-1.81 1.26l-.05-.59a.9.9 0 01-.24.7l.92.35c-.29.11-.42.29-.74.06.34.58 1.4.75 1.77 1.69-.6 0-.23 1.17-1.31.52 1-.64-1.1-.65-.71-1.52 0 .23-.12.41-.41.52a.35.35 0 01-.2-.29c-1.53.18.86 1.24.18 2.1-.49-.53-1.23-.6-1.21-.37.27-.34 1.07.54 1.26 1.2-.86.23-.13.86-.4 1.12l.46-.18c.48.54.19.77.07 1.31-.46-.31 0-.6-.33-.6.67 1.21-1.78.18-1.59 1.29-.6 0-1.07-.8-1.52-.76.19 1.23-1.33.11-1.29 1.27.9.4.75.22 1.08 1.3l.39-1.57.49 1.61c.29-.34.13-1.11.42-1.22.33.84.17.65.92 1-1.5-.42-.11 1.47-1.31 1.42l-1.82-1.51c-1.47.14-.22 2.24-1.59 2.88l.6-.06c.6.74-.46.72-.46 1.3a3 3 0 00-1.47-.71c.46.37-.69.72.41 1.86l-1.18-.23c-1 .53.85 2.47-.09 3.07-.41-.82-1.15-.85-1.12-1.78-.25.25-.57.38-.17.76-.51-.19.09 1.44-.68 1.16.15.34.71.95.39 1.19a1 1 0 01-.28-.27c.28.27-.06.82.82 1.17-2.55-.93-2 2.39-4.2 1.53a11.07 11.07 0 01-1.36 2.07c-.13-.2-.27-.29-.12-.32-1.21.13 1.11 2.07-.26 2.24-1.28-.56 0-.92-.62-1-1.87-1.82-.72 1.19-2.3.54v-.23c-1-.3-.4 1.63-1.23 2.09a1.26 1.26 0 00-.25-.31 4.48 4.48 0 01-.73 3.41c-.43-1 0-.68-.81-1.37-.22.37 1.14 1.21.7 2a4.47 4.47 0 01-2.06-1.11c.19-.16.38-.33.56-.51-1.18-.86-.74.63-1.21.68l-.34-.53c-.79.85.15 2.11-.92 2.76l.39.31c.39 1.65-1-.34-.81.95q-.51-.6-1-1.23a8.09 8.09 0 01-.08 1.24 3.61 3.61 0 01-.54 1.46 19.34 19.34 0 00.12-3.12c-.18.12-.47.5-.39 1.38 0-.21 0-.67.18-.48.21 1.38-.19 2.43-.88 2.68-.07-1.78-.38-1.86-.72-2s-.78-.3-.4-1.7c-.46.51-.69.08-.68-.36s.16-.9 0-1.06c-1 .72-1 .72-1.05.64s-.06-.06-.22 0a4.32 4.32 0 00-1 .43c-.34-.31-.39-.48-.26-.59l.66-1.85c.48-.62.68.12 1.15-.18-.3-.94.72-.84 1-1.72-.71.53-1.26.29-1.23-.36l-.63 1.22c-1.78-.58 1.26-2-.52-2.61h.88c-.72-.42-1.27-2.29-3.32-1.92.19-.25.69-.72 1-.54-.59-1.61-3.63-2.21-3.29-3.92l.58-.2c-.31-.18-1.25.11-.94-.53.22-.11.58-.2.53-.35-.26 0-1.33-.16-1.24-.7h.76c-.2-1.81-2.7-1.29-3.78-2.21a2.69 2.69 0 001.16-3l.22-.12c-.88-1.72-3-1.94-4.56-3 1-2-1.45-3.49-1.59-5.56-.1.4-1.14.76-1.47.61 0-.54-1.67-.19-.32-1.09l.06.14c1.1-1.19.25-1.63-.11-2.19l-1.77 1.17c.72-1.61-.19-2.36-1.06-3s-1.76-1.13-1-2.35c-.67 0-1-.41-1.66-.41l.9-.69a5.78 5.78 0 00-1.85-2.59l.82-.28c-.47-.68-3.19 1.28-3.71.75l1.16-1.25c-.93-1.06-.72-3.12-2.78-3.19.2-.15.6-.43.8-.3-.39-.54-.85-2.69-2.43-1 1.13-1-.85-1.19-1.85-1.31l.91-.65c-1.49.47-1.79.71-2.67.31 0-.25.53-.74.51-.33 0-.92-1.14.29-1.29-.73l.75-.25c-.44-.58-.68-.28-1.56 0-.64 0-.73-1.19-.07-2-.52.35-1.39.63-1.47.12a1 1 0 01.65-.38c-.28-1.4-2.17-.41-1.95-1.77a1.3 1.3 0 00.38-.57c.65.72 1.13 1.33 1 1.33.74-.71.33-1.4 1.78-1.93-1 .07-2.93.46-3.13-.41a2.91 2.91 0 01.18-.32h.14c0-.2-.23-.24-.46-.23a1.26 1.26 0 00-.22-.66c.54-.66-.31-1-.56-1.27-.77.82-1 .34-1.32 1.33 0-.1.14 0 .36.11a.42.42 0 00.2 0h-.09c.2.16.46.38.73.63-.62.19-1.18.3-1.05-.44-.65.37-1.33.74-1.66.9.74-1.48.61-2.81 1.18-3.61-1.27-.4-2.31-1.65-4.31-.63-.43 0 .14-.7.28-1 .28 0 .43.16.72 0-.87-.07-1.6-1.22-2.73-.24-.16-1.07 1.28-.67.27-1.29l.42-.23c-.09-3.34-5.29.31-5.16-3.64a.81.81 0 01-.12.59c-.63-1.48-2-2.2-3.26-3a5.62 5.62 0 01-2.93-3.36c-.37-.84-1-.16-1.86.1l.61-1.05-1.53.57c-1.56.07.19-3.64-2.19-3l-.34.76c-.34-.44-1.67-.64-1-1.33-.13.08-.65.57-.57.1l.37-.51-1.72.07c-.57-1 1.62-1.92.46-2.93-.6-.14-2.37.54-2.45 1a1 1 0 01-.12 1.19h-.6c-1.16 1.46-2.57 2.79-2.35 4.57l1.36-.41-.31.89-.61-.38c-.18.93.47.47 1 .23a1.87 1.87 0 00-.3 1l1.73-.93c-.35.64-1.16.94-.95 1.59.81-.43.67-1.53 1.52-1.58-.18.92-.69 1.4.13 1.11a1.14 1.14 0 01-.78.66c.69-.2 1.06.48 1.83-.18-.28 1.08 1.31.67.2 2 .36-.25 1.44-.63 1.79-.44-1.86 1.22 1.08 1-.47 2.66 1.59-1.16 2 .51 3.42.28-.14.08-.41.25-.41.13.31.46.06 1 .09 1.49 1.05-1.17 1.91-.91 2.87-1.37-.47 1.58-1.48 1.16-2.25 2.41.79-1 1.67-.25 2.18-1.21a3.31 3.31 0 01-.6 1.78c1.33-1.44.56 0 1.66-.61-.08 1.19-1 1.51-.06 1.56-.19.71-1.19.79-1.19.79zm16 10.29l-.32-.23zm1.12 1.12a3.33 3.33 0 00-.44-.53c.24-.31.56-.54.66-.41-.27.15-.17.55-.24.94zm3.17-7.88c.3.08.2.29.07.48a2.55 2.55 0 00-.42-.23l-.12.08a3.44 3.44 0 01.45-.33z"/><path class="cls-1" d="M180.9 263.63h-.14c-.05 0 0 .2-.07.29l.32-.19zm86.9 3.6a.34.34 0 01.17 0 .42.42 0 01-.17 0zm-76.09 21.42l.22-.18-.28.04.06.14zm83.72-27.32a.65.65 0 00.31 0 .9.9 0 00-.31 0zm2.04-3.27l.6-.3a1.91 1.91 0 00-.6.3zm1.85-2.36a3 3 0 00-.4-.28zm-23.55 41.06a.24.24 0 000 .12c-.01.35.03.12 0-.12zm5.98-13.07a3.53 3.53 0 01.2.67c.2-.16.33-.31-.2-.67zm-15.3 26.19l-.06.07zm15.12-24.98a.45.45 0 00.38-.54c-.18.13-.41.27-.38.54zm24.01-40.36l.11-.1a.74.74 0 01-.16-.1zm-.05-.2v-.2c-.08.06-.1.12 0 .2zm-.15-.62l.11.42c.05-.14.14-.21-.11-.42zm-2.02 4.07l.35.22a2 2 0 00-.35-.22zm-.43 1.11c.21-.21 1.1-.24 1.05-.71l-.27-.18c.45.44-1.27.34-.78.89zm-6.73 2.1l.74-.72c-.46-.05-1.08-.11-1-.56-1.7.51 1.06.22.26 1.28zm-1.97 2.43c.06-.56-.56-.28-.77-.42.2.48.25.6.77.42zm-10.66 19.3l-.85-.56c-.09.42.33.2.85.56zm2.31 6.37l.75-.01-.7-.66-.05.67zm-7.5-1.74l-.03-.22-.05.76.08-.54zm-22.02 28.76l1 .81c0-.35-.96-1.4-1-.81zm-10.97 11.14c-.51-.4-1.1-.47-.95.19.33-.13.91.05.95-.19zm-23.06-31.35l.53.02-.65-.3.12.28z"/></g></g></svg>