<svg width="292" height="187" fill="none" xmlns="http://www.w3.org/2000/svg"><path d="M2 2h72.264c16.662 0 31.388 5.34 47.061 9.944 15.567 4.573 26.631 9.35 41.208 16.575 14.832 7.35 32.944 18.97 44.792 29.626 5.143 4.625 10.972 8.375 16.125 12.845 4.448 3.858 6.286 11.949 9.794 16.78 13.332 18.363 21.565 35.742 22.456 57.389.509 12.353 4.3 23.344 4.3 35.841m-84-44c20.425 2.54 37.461 13.358 53.934 23.833C239.39 166.847 246.425 175.587 256 181" stroke="#D84F31" stroke-width="4" stroke-linecap="round" stroke-linejoin="round"/><path d="M290 121c-7.162 13.009-15.456 29.511-17.454 43.399C270.775 176.712 261.805 179.368 251 185" stroke="#D84F31" stroke-width="4" stroke-linecap="round" stroke-linejoin="round"/></svg>