<svg width="50" height="51" fill="none" xmlns="http://www.w3.org/2000/svg"><path d="M2.202 6.45c.234 10.29 5.72 17.467 11.682 25.453 1.272 1.704 9.193 13.436 4.918 5.288-4.054-7.729-3.716-15.733-4.672-24.102-.269-2.347-.861-4.635-.861-7.009 0-2.634.182 5.295.738 7.87 1.363 6.321 3.758 12.398 5.656 18.568.14.451 2.276 6.621 2.46 6.21 3.519-7.919 1.565-20.7 2.705-29.327.085-.646.614-8.462.614-6.518v33.323c0 4.577.015 3.794 1.353-.122 3.449-10.091 6.77-20.657 11.436-30.25 1.248-2.565.475 1.702.43 2.583-.341 6.652-2.692 12.665-4.734 18.936-.996 3.06-1.39 7.752-3.443 10.39-.815 1.048.821-5.444.984-5.84 2.544-6.188 6.306-11.991 9.345-17.953 1.348-2.644 3.654-9.223 6.148-11.005.776-.554.225 5.846.123 6.21-1.71 6.106-5.844 11.457-8.73 17.03-3.1 5.985-5.358 12.698-8.977 18.383-3.785 5.948-3.18 4.915-5.041-1.598" stroke="#D84F31" stroke-width="4" stroke-linecap="round" stroke-linejoin="round"/></svg>