<svg width="292" height="187" viewBox="0 0 292 187" fill="none" xmlns="http://www.w3.org/2000/svg">
<path d="M2 2C26.088 2 50.1759 2 74.2639 2C90.9261 2 105.652 7.34068 121.325 11.9444C136.892 16.5173 147.956 21.2944 162.533 28.5185C177.365 35.8688 195.477 47.4887 207.325 58.1447C212.468 62.7704 218.297 66.5205 223.45 70.9896C227.898 74.8475 229.736 82.9386 233.244 87.7708C246.576 106.133 254.809 123.512 255.7 145.159C256.209 157.512 260 168.503 260 181" stroke="#D84F31" stroke-width="4" stroke-linecap="round" stroke-linejoin="round"/>
<path d="M176 137C196.425 139.54 213.461 150.358 229.934 160.833C239.39 166.847 246.425 175.587 256 181" stroke="#D84F31" stroke-width="4" stroke-linecap="round" stroke-linejoin="round"/>
<path d="M290 121C282.838 134.009 274.544 150.511 272.546 164.399C270.775 176.712 261.805 179.368 251 185" stroke="#D84F31" stroke-width="4" stroke-linecap="round" stroke-linejoin="round"/>
</svg>
