<svg width="50" height="51" viewBox="0 0 50 51" fill="none" xmlns="http://www.w3.org/2000/svg">
<path d="M2.20215 6.44938C2.43601 16.7392 7.9226 23.9173 13.8838 31.903C15.1559 33.6073 23.0768 45.3388 18.8024 37.1905C14.7481 29.462 15.0861 21.4582 14.1297 13.0895C13.8614 10.7416 13.269 8.45396 13.269 6.08049C13.269 3.44574 13.4512 11.3747 14.0067 13.9502C15.3701 20.2713 17.7647 26.348 19.6631 32.5179C19.8021 32.9695 21.9393 39.1395 22.1224 38.7276C25.6417 30.8091 23.6882 18.0276 24.8276 9.40053C24.9129 8.7551 25.4425 0.938844 25.4425 2.88341C25.4425 8.31435 25.4425 13.7453 25.4425 19.1762C25.4425 24.8531 25.4425 30.5299 25.4425 36.2068C25.4425 40.7828 25.4566 40 26.7951 36.0838C30.244 25.9926 33.5642 15.4269 38.2308 5.83456C39.4791 3.26851 38.7063 7.53646 38.6611 8.41682C38.32 15.0693 35.9688 21.0821 33.927 27.3534C32.9308 30.4133 32.5368 35.1045 30.484 37.7439C29.6694 38.7912 31.3051 32.2987 31.4677 31.903C34.0118 25.7148 37.7738 19.9118 40.813 13.9502C42.1613 11.3055 44.4666 4.72678 46.9613 2.94489C47.7371 2.39074 47.1861 8.79076 47.0842 9.1546C45.3746 15.2605 41.2397 20.6123 38.3537 26.1852C35.2547 32.1695 32.9956 38.8825 29.3773 44.5684C25.5922 50.5164 26.1967 49.4831 24.3358 42.9699" stroke="#D84F31" stroke-width="4" stroke-linecap="round" stroke-linejoin="round"/>
</svg>
